<?xml version="1.0" encoding="UTF-8" standalone="no"?>
<svg xmlns:inkscape="http://www.inkscape.org/namespaces/inkscape" xmlns:sodipodi="http://sodipodi.sourceforge.net/DTD/sodipodi-0.dtd" xmlns="http://www.w3.org/2000/svg" xmlns:svg="http://www.w3.org/2000/svg" version="1.1" id="svg2" width="250.00076" height="99.942001" viewBox="0 0 250.00076 99.942002">
  <defs id="defs6">
    <clipPath id="clipPath18">
      <path d="M 0,2125.984 H 2828.976 V 0 H 0 Z" id="path16"></path>
    </clipPath>
  </defs>
  <g id="g10" transform="matrix(1.3333333,0,0,-1.3333333,-1267.0993,1729.879)">
    <g id="g12" transform="matrix(0.13558174,0,0,0.13558174,821.47785,1121.5043)">
      <g id="g14" clip-path="url(#clipPath18)">
        <g id="g20" transform="translate(1320.84,1226.1982)">
          <path d="M 0,0 V 6.013 H -37.563 V 0 h 15.15 v -46.7 h 7.185 V 0 Z m 57.554,-20.07 c 0,12.807 -4.686,21.085 -12.573,24.677 l 2.733,7.341 -5.31,1.796 -2.811,-7.575 c -1.718,0.39 -3.671,0.625 -5.623,0.625 -13.823,0 -24.756,-9.996 -24.756,-27.567 0,-11.167 3.592,-20.148 11.87,-24.287 l -2.967,-7.965 5.388,-1.718 2.89,7.965 c 1.874,-0.469 3.904,-0.703 6.091,-0.703 14.213,0 25.068,9.996 25.068,27.411 m -7.341,-0.703 c 0,-13.198 -7.262,-20.148 -16.478,-20.46 -1.718,0 -3.513,0.156 -5.153,0.625 L 42.56,-2.265 c 5.154,-3.124 7.653,-9.918 7.653,-18.508 M 37.484,-0.078 23.427,-38.11 c -4.998,3.436 -6.872,9.918 -6.872,17.962 0,12.963 7.185,19.992 15.619,20.46 2.03,0.079 3.67,-0.078 5.31,-0.39 M 131.429,-46.7 123.464,6.013 h -8.903 l -11.48,-33.658 c -1.249,-3.749 -2.03,-6.326 -2.811,-9.996 h -0.156 c -0.625,3.124 -1.64,6.638 -2.968,10.465 L 86.057,6.013 H 77.233 L 69.501,-46.7 h 7.341 l 3.592,29.754 c 0.625,5.154 1.172,9.371 1.484,13.666 h 0.078 c 0.625,-3.436 2.031,-7.809 3.358,-11.792 L 96.053,-46.7 h 7.653 l 11.323,33.893 c 1.172,3.748 2.031,7.028 2.578,9.527 h 0.156 c 0.312,-3.124 0.781,-6.95 1.64,-12.964 l 4.451,-30.456 z m 49.589,0 -14.916,18.821 c -1.405,1.718 -3.046,3.748 -4.607,5.622 9.215,0.625 16.087,5.857 16.087,14.838 0,10.074 -7.497,13.744 -17.884,13.744 -5.778,0 -9.605,-0.077 -13.198,-0.312 V -46.7 h 7.185 v 23.662 h 0.312 L 171.881,-46.7 Z m -10.933,38.344 c 0,-5.623 -4.373,-9.449 -11.949,-9.449 -2.108,0 -3.67,0.078 -4.451,0.156 V 0.312 c 1.406,0.079 2.968,0.157 4.764,0.157 7.653,0 11.636,-2.5 11.636,-8.825 M 222.328,-46.7 v 6.013 h -19.914 v 18.274 h 18.977 v 5.779 H 202.414 V 0.078 h 19.914 V 6.013 H 195.229 V -46.7 Z m 51.228,0 -14.915,18.821 c -1.406,1.718 -3.046,3.748 -4.608,5.622 9.215,0.625 16.087,5.857 16.087,14.838 0,10.074 -7.497,13.744 -17.883,13.744 -5.779,0 -9.606,-0.077 -13.198,-0.312 V -46.7 h 7.185 v 23.662 h 0.312 L 264.419,-46.7 Z m -10.933,38.344 c 0,-5.623 -4.373,-9.449 -11.948,-9.449 -2.109,0 -3.671,0.078 -4.451,0.156 V 0.312 c 1.405,0.079 2.967,0.157 4.763,0.157 7.654,0 11.636,-2.5 11.636,-8.825 M 378.901,0.078 V 6.013 H 352.036 V -46.7 h 7.185 v 23.897 h 18.664 v 5.778 H 359.221 V 0.078 Z m 21.631,5.935 h -7.185 V -46.7 h 7.185 z m 53.946,-52.713 -14.916,18.821 c -1.406,1.718 -3.046,3.748 -4.607,5.622 9.215,0.625 16.087,5.857 16.087,14.838 0,10.074 -7.497,13.744 -17.884,13.744 -5.778,0 -9.605,-0.077 -13.197,-0.312 V -46.7 h 7.184 v 23.662 h 0.313 L 445.341,-46.7 Z m -10.933,38.344 c 0,-5.623 -4.373,-9.449 -11.948,-9.449 -2.109,0 -3.671,0.078 -4.452,0.156 V 0.312 c 1.406,0.079 2.968,0.157 4.764,0.157 7.653,0 11.636,-2.5 11.636,-8.825 M 526.87,-46.7 518.905,6.013 h -8.903 l -11.48,-33.658 c -1.249,-3.749 -2.03,-6.326 -2.811,-9.996 h -0.156 c -0.625,3.124 -1.64,6.638 -2.968,10.465 L 481.498,6.013 h -8.825 L 464.942,-46.7 h 7.341 l 3.592,29.754 c 0.625,5.154 1.172,9.371 1.484,13.666 h 0.078 c 0.625,-3.436 2.031,-7.809 3.358,-11.792 L 491.494,-46.7 h 7.653 l 11.324,33.893 c 1.171,3.748 2.03,7.028 2.577,9.527 h 0.156 c 0.312,-3.124 0.781,-6.95 1.64,-12.964 l 4.451,-30.456 z m 55.357,0 -19.367,52.713 h -7.965 L 535.684,-46.7 h 7.341 l 4.373,12.339 h 22.413 l 4.373,-12.339 z m -14.369,18.04 h -18.586 l 6.794,18.742 c 1.016,2.655 1.797,5.389 2.421,7.966 h 0.157 c 0.624,-2.734 1.327,-5.233 2.342,-7.888 z m 53.494,-18.04 v 6.013 h -19.914 v 18.274 h 18.977 v 5.779 H 601.438 V 0.078 h 19.914 V 6.013 H 594.253 V -46.7 Z M 670.394,0 V 6.013 H 632.831 V 0 h 15.15 v -46.7 h 7.185 V 0 Z" style="fill:#231f20;fill-opacity:1;fill-rule:nonzero;stroke:none" id="path22"></path>
        </g>
        <g id="g24" transform="translate(2269.6604,910.4903)">
          <path d="m 0,0 -15.494,42.17 h -6.372 L -37.235,0 h 5.873 l 3.498,9.871 h 17.93 L -6.435,0 Z m -11.495,14.432 h -14.87 l 5.436,14.994 c 0.812,2.124 1.437,4.31 1.937,6.372 h 0.125 c 0.499,-2.187 1.061,-4.186 1.874,-6.31 z m 44.231,2.561 c 0,9.496 -4.123,14.619 -11.371,14.619 -4.935,0 -8.683,-2.624 -10.433,-6.934 l -0.124,0.062 c 0.374,1.749 0.499,4.561 0.499,6.31 H 5.872 v -46.481 h 5.622 V 0 c 1.812,-0.312 3.312,-0.375 5.249,-0.375 10.058,0 15.993,6.31 15.993,17.368 m -5.872,-0.5 c 0,-8.934 -3.937,-12.495 -9.872,-12.495 -2.124,0 -3.873,0.25 -5.498,0.75 v 10.246 c 0,5.435 2.875,11.995 8.497,11.995 4.686,0 6.873,-3.811 6.873,-10.496 m 36.734,-4.061 c 0,13.183 -19.054,9.872 -19.054,18.993 0,3.936 2.998,6.559 8.746,6.559 2.499,0 5.186,-0.437 7.622,-1.124 l 0.312,5.123 c -2.499,0.5 -5.06,0.75 -7.621,0.75 -9.497,0 -14.994,-4.998 -14.994,-11.933 0,-13.432 18.992,-9.684 18.992,-19.18 0,-5.185 -4.186,-7.247 -9.246,-7.247 -2.937,0 -6.248,0.687 -8.685,1.562 L 39.358,0.437 c 2.437,-0.624 5.435,-0.999 8.497,-0.999 9.808,0 15.743,5.435 15.743,12.994" style="fill:#0084b6;fill-opacity:1;fill-rule:nonzero;stroke:none" id="path26"></path>
        </g>
        <g id="g32" transform="translate(950.3245,1151.3813)">
          <path d="m 0,0 v -240.527 h 111.33 c 40.202,0 72.845,23.022 72.845,68.378 0,33.33 -26.458,50.854 -47.762,55.321 12.714,2.749 35.736,16.494 35.736,51.542 C 172.149,-26.115 139.162,0 98.273,0 Z m 48.105,-195.858 v 55.665 h 59.101 c 16.494,0 28.864,-11.683 28.864,-27.833 0,-13.057 -10.996,-27.832 -24.74,-27.832 z m 0,151.189 h 50.168 c 14.775,0 26.114,-13.401 26.114,-28.177 0,-14.775 -9.621,-26.114 -25.084,-26.114 H 48.105 Z M 293.097,5.154 203.071,-240.527 h 50.854 l 20.617,60.819 h 86.59 l 20.616,-60.819 h 50.855 L 342.577,5.154 Z m 24.396,-47.761 31.956,-98.617 h -63.224 z m 220.938,-203.074 c 57.383,0 93.119,26.801 93.119,72.501 0,86.246 -129.885,64.599 -129.885,109.612 0,16.15 16.493,26.114 42.264,26.114 30.581,0 61.85,-13.744 61.85,-13.744 l 16.836,38.141 c -15.806,7.559 -47.074,18.211 -81.091,18.211 -54.634,0 -87.964,-27.489 -87.964,-72.502 0,-89.682 130.228,-65.286 130.228,-109.611 0,-16.494 -17.524,-26.115 -45.701,-26.115 -29.207,0 -55.664,10.652 -69.065,17.181 l -17.524,-38.485 c 12.37,-6.872 44.669,-21.303 86.933,-21.303 M 1033.913,0 H 863.827 v -240.527 h 172.492 v 44.669 H 911.932 v 51.198 h 104.114 v 43.295 H 911.932 v 56.696 h 121.981 M 1084.422,0 v -240.527 h 48.106 v 92.775 h 40.202 l 48.106,-92.775 h 55.664 l -54.634,98.272 c 27.833,11.339 45.357,38.828 45.357,68.379 0,40.546 -33.33,73.876 -73.533,73.876 z m 48.106,-44.669 h 46.044 c 18.898,0 41.233,-4.124 41.233,-29.207 0,-14.432 -12.37,-30.582 -26.115,-30.582 h -61.162 z m -423.982,-88.185 67.317,-107.673 h 55.665 L 736.691,-99.647 823.968,0 h -57.726 l -57.696,-67.494 z" style="fill:#0084b6;fill-opacity:1;fill-rule:nonzero;stroke:none" id="path34"></path>
        </g>
        <g id="g44" transform="translate(1582.4034,1297.4093)">
          <path d="m 0,0 v -17.943 c 0,-3.969 13.424,-12.674 30.571,-13.519 v -470.463 l 18.367,-50.926 18.351,50.926 v 470.463 c 17.164,0.845 31.529,9.663 30.588,13.519 V 0 Z" style="fill:#aa5f3c;fill-opacity:1;fill-rule:nonzero;stroke:none" id="path46"></path>
        </g>
      </g>
    </g>
  </g>
</svg>
