<?xml version="1.0" encoding="UTF-8" standalone="no"?>
<svg xmlns:inkscape="http://www.inkscape.org/namespaces/inkscape" xmlns:sodipodi="http://sodipodi.sourceforge.net/DTD/sodipodi-0.dtd" xmlns="http://www.w3.org/2000/svg" xmlns:svg="http://www.w3.org/2000/svg" version="1.1" id="svg2" width="200" height="153.99997" viewBox="0 0 200 153.99997">
  <defs id="defs6">
    <clipPath id="clipPath18">
      <path d="M 0,2125.984 H 2828.976 V 0 H 0 Z" id="path16"></path>
    </clipPath>
  </defs>
  <g id="g10" transform="matrix(1.3333333,0,0,-1.3333333,-634.69061,2348.3507)">
    <g id="g12" transform="matrix(0.08076499,0,0,0.08086569,437.57237,1618.8373)">
      <g id="g14" clip-path="url(#clipPath18)">
        <g id="g20" transform="translate(1320.84,1226.1982)">
          <path d="M 0,0 V 6.013 H -37.563 V 0 h 15.15 v -46.7 h 7.185 V 0 Z m 57.554,-20.07 c 0,12.807 -4.686,21.085 -12.573,24.677 l 2.733,7.341 -5.31,1.796 -2.811,-7.575 c -1.718,0.39 -3.671,0.625 -5.623,0.625 -13.823,0 -24.756,-9.996 -24.756,-27.567 0,-11.167 3.592,-20.148 11.87,-24.287 l -2.967,-7.965 5.388,-1.718 2.89,7.965 c 1.874,-0.469 3.904,-0.703 6.091,-0.703 14.213,0 25.068,9.996 25.068,27.411 m -7.341,-0.703 c 0,-13.198 -7.262,-20.148 -16.478,-20.46 -1.718,0 -3.513,0.156 -5.153,0.625 L 42.56,-2.265 c 5.154,-3.124 7.653,-9.918 7.653,-18.508 M 37.484,-0.078 23.427,-38.11 c -4.998,3.436 -6.872,9.918 -6.872,17.962 0,12.963 7.185,19.992 15.619,20.46 2.03,0.079 3.67,-0.078 5.31,-0.39 M 131.429,-46.7 123.464,6.013 h -8.903 l -11.48,-33.658 c -1.249,-3.749 -2.03,-6.326 -2.811,-9.996 h -0.156 c -0.625,3.124 -1.64,6.638 -2.968,10.465 L 86.057,6.013 H 77.233 L 69.501,-46.7 h 7.341 l 3.592,29.754 c 0.625,5.154 1.172,9.371 1.484,13.666 h 0.078 c 0.625,-3.436 2.031,-7.809 3.358,-11.792 L 96.053,-46.7 h 7.653 l 11.323,33.893 c 1.172,3.748 2.031,7.028 2.578,9.527 h 0.156 c 0.312,-3.124 0.781,-6.95 1.64,-12.964 l 4.451,-30.456 z m 49.589,0 -14.916,18.821 c -1.405,1.718 -3.046,3.748 -4.607,5.622 9.215,0.625 16.087,5.857 16.087,14.838 0,10.074 -7.497,13.744 -17.884,13.744 -5.778,0 -9.605,-0.077 -13.198,-0.312 V -46.7 h 7.185 v 23.662 h 0.312 L 171.881,-46.7 Z m -10.933,38.344 c 0,-5.623 -4.373,-9.449 -11.949,-9.449 -2.108,0 -3.67,0.078 -4.451,0.156 V 0.312 c 1.406,0.079 2.968,0.157 4.764,0.157 7.653,0 11.636,-2.5 11.636,-8.825 M 222.328,-46.7 v 6.013 h -19.914 v 18.274 h 18.977 v 5.779 H 202.414 V 0.078 h 19.914 V 6.013 H 195.229 V -46.7 Z m 51.228,0 -14.915,18.821 c -1.406,1.718 -3.046,3.748 -4.608,5.622 9.215,0.625 16.087,5.857 16.087,14.838 0,10.074 -7.497,13.744 -17.883,13.744 -5.779,0 -9.606,-0.077 -13.198,-0.312 V -46.7 h 7.185 v 23.662 h 0.312 L 264.419,-46.7 Z m -10.933,38.344 c 0,-5.623 -4.373,-9.449 -11.948,-9.449 -2.109,0 -3.671,0.078 -4.451,0.156 V 0.312 c 1.405,0.079 2.967,0.157 4.763,0.157 7.654,0 11.636,-2.5 11.636,-8.825 M 378.901,0.078 V 6.013 H 352.036 V -46.7 h 7.185 v 23.897 h 18.664 v 5.778 H 359.221 V 0.078 Z m 21.631,5.935 h -7.185 V -46.7 h 7.185 z m 53.946,-52.713 -14.916,18.821 c -1.406,1.718 -3.046,3.748 -4.607,5.622 9.215,0.625 16.087,5.857 16.087,14.838 0,10.074 -7.497,13.744 -17.884,13.744 -5.778,0 -9.605,-0.077 -13.197,-0.312 V -46.7 h 7.184 v 23.662 h 0.313 L 445.341,-46.7 Z m -10.933,38.344 c 0,-5.623 -4.373,-9.449 -11.948,-9.449 -2.109,0 -3.671,0.078 -4.452,0.156 V 0.312 c 1.406,0.079 2.968,0.157 4.764,0.157 7.653,0 11.636,-2.5 11.636,-8.825 M 526.87,-46.7 518.905,6.013 h -8.903 l -11.48,-33.658 c -1.249,-3.749 -2.03,-6.326 -2.811,-9.996 h -0.156 c -0.625,3.124 -1.64,6.638 -2.968,10.465 L 481.498,6.013 h -8.825 L 464.942,-46.7 h 7.341 l 3.592,29.754 c 0.625,5.154 1.172,9.371 1.484,13.666 h 0.078 c 0.625,-3.436 2.031,-7.809 3.358,-11.792 L 491.494,-46.7 h 7.653 l 11.324,33.893 c 1.171,3.748 2.03,7.028 2.577,9.527 h 0.156 c 0.312,-3.124 0.781,-6.95 1.64,-12.964 l 4.451,-30.456 z m 55.357,0 -19.367,52.713 h -7.965 L 535.684,-46.7 h 7.341 l 4.373,12.339 h 22.413 l 4.373,-12.339 z m -14.369,18.04 h -18.586 l 6.794,18.742 c 1.016,2.655 1.797,5.389 2.421,7.966 h 0.157 c 0.624,-2.734 1.327,-5.233 2.342,-7.888 z m 53.494,-18.04 v 6.013 h -19.914 v 18.274 h 18.977 v 5.779 H 601.438 V 0.078 h 19.914 V 6.013 H 594.253 V -46.7 Z M 670.394,0 V 6.013 H 632.831 V 0 h 15.15 v -46.7 h 7.185 V 0 Z" style="fill:#231f20;fill-opacity:1;fill-rule:nonzero;stroke:none" id="path22"></path>
        </g>
        <g id="g24" transform="translate(2269.6604,910.4903)">
          <path d="m 0,0 -15.494,42.17 h -6.372 L -37.235,0 h 5.873 l 3.498,9.871 h 17.93 L -6.435,0 Z m -11.495,14.432 h -14.87 l 5.436,14.994 c 0.812,2.124 1.437,4.31 1.937,6.372 h 0.125 c 0.499,-2.187 1.061,-4.186 1.874,-6.31 z m 44.231,2.561 c 0,9.496 -4.123,14.619 -11.371,14.619 -4.935,0 -8.683,-2.624 -10.433,-6.934 l -0.124,0.062 c 0.374,1.749 0.499,4.561 0.499,6.31 H 5.872 v -46.481 h 5.622 V 0 c 1.812,-0.312 3.312,-0.375 5.249,-0.375 10.058,0 15.993,6.31 15.993,17.368 m -5.872,-0.5 c 0,-8.934 -3.937,-12.495 -9.872,-12.495 -2.124,0 -3.873,0.25 -5.498,0.75 v 10.246 c 0,5.435 2.875,11.995 8.497,11.995 4.686,0 6.873,-3.811 6.873,-10.496 m 36.734,-4.061 c 0,13.183 -19.054,9.872 -19.054,18.993 0,3.936 2.998,6.559 8.746,6.559 2.499,0 5.186,-0.437 7.622,-1.124 l 0.312,5.123 c -2.499,0.5 -5.06,0.75 -7.621,0.75 -9.497,0 -14.994,-4.998 -14.994,-11.933 0,-13.432 18.992,-9.684 18.992,-19.18 0,-5.185 -4.186,-7.247 -9.246,-7.247 -2.937,0 -6.248,0.687 -8.685,1.562 L 39.358,0.437 c 2.437,-0.624 5.435,-0.999 8.497,-0.999 9.808,0 15.743,5.435 15.743,12.994" style="fill:#0084b6;fill-opacity:1;fill-rule:nonzero;stroke:none" id="path26"></path>
        </g>
        <g id="g28" transform="translate(1824.2238,882.2872)">
          <path d="M 0,0 V 5.612 H -35.059 V 0 h 14.141 v -43.586 h 6.705 V 0 Z m 31.049,-43.586 v 5.757 H 13.41 V 5.612 H 6.704 V -43.586 Z M 62.827,0.073 V 5.612 H 37.754 v -49.198 h 6.705 v 22.303 h 17.42 v 5.394 H 44.459 V 0.073 Z m 56.413,-14.359 c 0,14.65 -6.997,20.627 -16.546,20.627 -10.349,0 -17.055,-7.289 -17.055,-17.055 0,-9.257 5.685,-15.161 14.723,-15.161 5.175,0 9.403,2.478 11.444,5.393 v -0.145 c -0.219,-0.729 -0.438,-2.259 -0.729,-3.644 -1.75,-9.476 -7.07,-14.214 -16.035,-14.214 -2.187,0 -4.592,0.146 -6.852,0.802 v -6.122 c 1.75,-0.291 3.79,-0.437 6.123,-0.437 14.067,0 24.927,8.309 24.927,29.956 m -7.507,3.79 c 0,-4.665 -3.79,-9.475 -9.986,-9.475 -5.685,0 -9.402,3.79 -9.402,10.35 0,5.904 4.082,10.423 9.767,10.423 5.758,0 9.621,-4.301 9.621,-11.298 m 42.783,-18.294 c 0,6.049 -3.863,10.787 -9.475,11.735 l 0.073,0.145 c 5.029,1.822 8.236,6.123 8.236,11.735 0,6.341 -4.3,11.443 -13.557,11.443 -3.79,0 -7.507,-0.801 -10.568,-2.113 l 0.583,-5.54 c 2.551,1.312 5.466,2.114 8.527,2.114 5.175,0 8.091,-2.624 8.091,-7.143 0,-5.831 -4.446,-9.403 -15.525,-9.111 v -5.321 c 11.662,1.385 16.545,-2.624 16.545,-8.309 0,-5.248 -4.373,-9.33 -11.224,-9.33 -2.624,0 -4.884,0.292 -6.852,0.948 l -0.583,-5.904 c 1.895,-0.51 4.228,-0.729 7.289,-0.729 10.787,0 18.44,6.415 18.44,15.38 m 44.534,1.967 c 0,8.091 -5.904,14.287 -15.087,14.287 -5.467,0 -9.475,-2.187 -11.881,-5.831 l -0.073,0.145 c 0.292,1.093 0.51,2.26 0.656,3.061 1.968,10.059 7.507,15.671 17.056,15.671 1.968,0 3.28,-0.073 4.81,-0.364 v 5.831 c -0.947,0.146 -2.624,0.218 -4.373,0.218 -13.776,0 -24.854,-8.819 -24.854,-30.175 0,-13.193 6.195,-20.335 16.18,-20.335 10.569,0 17.566,6.997 17.566,17.492 m -6.851,-1.093 c 0,-6.341 -3.644,-10.86 -10.277,-10.86 -5.758,0 -9.329,4.811 -9.329,10.715 0,5.685 3.863,10.058 9.912,10.058 6.268,0 9.694,-4.155 9.694,-9.913 m 40.743,-0.874 c 0,6.049 -3.863,10.787 -9.475,11.735 l 0.073,0.145 c 5.029,1.822 8.236,6.123 8.236,11.735 0,6.341 -4.301,11.443 -13.557,11.443 -3.79,0 -7.507,-0.801 -10.569,-2.113 l 0.583,-5.54 c 2.551,1.312 5.467,2.114 8.528,2.114 5.175,0 8.091,-2.624 8.091,-7.143 0,-5.831 -4.447,-9.403 -15.525,-9.111 v -5.321 c 11.662,1.385 16.545,-2.624 16.545,-8.309 0,-5.248 -4.373,-9.33 -11.225,-9.33 -2.623,0 -4.883,0.292 -6.851,0.948 l -0.583,-5.904 c 1.895,-0.51 4.227,-0.729 7.289,-0.729 10.787,0 18.44,6.415 18.44,15.38 m 40.889,-14.796 V 5.612 h -5.102 l -12.026,-4.227 1.092,-6.123 9.257,3.645 v -42.493 z m 45.699,25.146 c 0,17.566 -6.633,24.635 -17.274,24.635 -10.059,0 -18.295,-8.09 -18.295,-25.146 0,-18.367 7.07,-25.291 17.347,-25.291 8.747,0 18.222,7.143 18.222,25.802 m -6.997,-0.438 c 0,-13.994 -5.029,-19.752 -10.933,-19.752 -7.507,0 -10.642,7.216 -10.642,20.263 0,13.775 4.811,19.169 10.933,19.169 7.071,0 10.642,-5.613 10.642,-19.68 m 49.053,-7.945 c 0,8.091 -5.904,14.287 -15.088,14.287 -5.466,0 -9.475,-2.187 -11.88,-5.831 l -0.073,0.145 c 0.292,1.093 0.51,2.26 0.656,3.061 1.968,10.059 7.507,15.671 17.055,15.671 1.968,0 3.28,-0.073 4.811,-0.364 v 5.831 c -0.947,0.146 -2.624,0.218 -4.373,0.218 -13.776,0 -24.855,-8.819 -24.855,-30.175 0,-13.193 6.196,-20.335 16.181,-20.335 10.569,0 17.566,6.997 17.566,17.492 m -6.852,-1.093 c 0,-6.341 -3.644,-10.86 -10.277,-10.86 -5.758,0 -9.329,4.811 -9.329,10.715 0,5.685 3.863,10.058 9.912,10.058 6.269,0 9.694,-4.155 9.694,-9.913 m 49.344,9.476 c 0,17.566 -6.633,24.635 -17.274,24.635 -10.059,0 -18.294,-8.09 -18.294,-25.146 0,-18.367 7.069,-25.291 17.347,-25.291 8.746,0 18.221,7.143 18.221,25.802 m -6.997,-0.438 c 0,-13.994 -5.029,-19.752 -10.933,-19.752 -7.507,0 -10.641,7.216 -10.641,20.263 0,13.775 4.81,19.169 10.933,19.169 7.07,0 10.641,-5.613 10.641,-19.68" style="fill:#000000;fill-opacity:1;fill-rule:nonzero;stroke:none" id="path30"></path>
        </g>
        <g id="g32" transform="translate(950.3245,1151.3813)">
          <path d="m 0,0 v -240.527 h 111.33 c 40.202,0 72.845,23.022 72.845,68.378 0,33.33 -26.458,50.854 -47.762,55.321 12.714,2.749 35.736,16.494 35.736,51.542 C 172.149,-26.115 139.162,0 98.273,0 Z m 48.105,-195.858 v 55.665 h 59.101 c 16.494,0 28.864,-11.683 28.864,-27.833 0,-13.057 -10.996,-27.832 -24.74,-27.832 z m 0,151.189 h 50.168 c 14.775,0 26.114,-13.401 26.114,-28.177 0,-14.775 -9.621,-26.114 -25.084,-26.114 H 48.105 Z M 293.097,5.154 203.071,-240.527 h 50.854 l 20.617,60.819 h 86.59 l 20.616,-60.819 h 50.855 L 342.577,5.154 Z m 24.396,-47.761 31.956,-98.617 h -63.224 z m 220.938,-203.074 c 57.383,0 93.119,26.801 93.119,72.501 0,86.246 -129.885,64.599 -129.885,109.612 0,16.15 16.493,26.114 42.264,26.114 30.581,0 61.85,-13.744 61.85,-13.744 l 16.836,38.141 c -15.806,7.559 -47.074,18.211 -81.091,18.211 -54.634,0 -87.964,-27.489 -87.964,-72.502 0,-89.682 130.228,-65.286 130.228,-109.611 0,-16.494 -17.524,-26.115 -45.701,-26.115 -29.207,0 -55.664,10.652 -69.065,17.181 l -17.524,-38.485 c 12.37,-6.872 44.669,-21.303 86.933,-21.303 M 1033.913,0 H 863.827 v -240.527 h 172.492 v 44.669 H 911.932 v 51.198 h 104.114 v 43.295 H 911.932 v 56.696 h 121.981 M 1084.422,0 v -240.527 h 48.106 v 92.775 h 40.202 l 48.106,-92.775 h 55.664 l -54.634,98.272 c 27.833,11.339 45.357,38.828 45.357,68.379 0,40.546 -33.33,73.876 -73.533,73.876 z m 48.106,-44.669 h 46.044 c 18.898,0 41.233,-4.124 41.233,-29.207 0,-14.432 -12.37,-30.582 -26.115,-30.582 h -61.162 z m -423.982,-88.185 67.317,-107.673 h 55.665 L 736.691,-99.647 823.968,0 h -57.726 l -57.696,-67.494 z" style="fill:#0084b6;fill-opacity:1;fill-rule:nonzero;stroke:none" id="path34"></path>
        </g>
        <g id="g36" transform="translate(1335.6219,1643.543)">
          <path d="m 0,0 -20.27,-45.929 -105.936,46.738 9.347,21.188 -141.235,62.346 -9.343,-21.201 -123.618,54.541 c 0,0 -178.299,7 -261.322,-171.554 0,0 97.021,66.862 200.55,33.842 l 123.606,-54.536 -259.138,-587.296 c -21.032,-1.836 -39.604,-13.24 -47.922,-32.048 l -219.972,-498.478 c -12.823,-29.113 3.657,-64.55 36.826,-79.185 l 74.102,-32.712 c 33.16,-14.611 70.464,-2.905 83.31,26.172 l 219.969,498.489 c 7.71,17.474 4.664,37.158 -6.016,53.333 l 260.087,589.374 109.475,-48.302 -15.586,-35.292 127.146,-56.106 96.598,218.964 z" style="fill:#0084b6;fill-opacity:1;fill-rule:nonzero;stroke:none" id="path38"></path>
        </g>
        <g id="g40" transform="translate(657.8225,503.9767)">
          <path d="m 0,0 -41.877,-9.456 -19.677,35.351 -6.294,-14.305 18.981,-32.019 -27.706,12.19 -5.179,-11.77 61.115,-26.891 5.18,11.77 -29.336,12.908 37.98,6.739 z m -27.033,60.629 -5.419,-12.313 17.456,-16.327 c 2.601,-2.441 5.643,-4.86 8.403,-6.939 l -0.08,-0.181 c -3.618,0.619 -7.718,1.127 -11.274,1.394 l -23.429,1.772 -5.577,-12.676 52.329,-3.14 5.179,11.77 z m 62.399,19.747 c -3.792,1.452 -8.087,3.234 -11.709,4.828 L 4.916,93.45 c -9.779,4.303 -17.457,2.818 -23.831,-11.668 -2.55,-5.795 -3.922,-12.108 -4.285,-17.352 l 10.126,-3.267 c -0.499,4.759 0.533,10.789 2.326,14.863 2.868,6.52 6.309,7.707 11.017,5.636 L 2.714,80.586 C -4.02,65.285 -3.016,52.091 7.758,47.35 c 7.243,-3.187 13.932,-0.51 17.518,7.638 2.948,6.7 1.847,13.777 -2.267,18.181 l 0.13,0.051 c 2.195,-1.398 4.781,-2.644 7.407,-3.8 z M 11.315,76.802 c 5.432,-2.391 9.152,-8.675 6.642,-14.379 -1.474,-3.349 -4.252,-4.505 -7.149,-3.23 -3.622,1.594 -5.958,5.863 -0.579,18.087 z m 34.608,27.566 -66.095,29.083 -5.099,-11.59 66.095,-29.082 z m -46.621,50.989 c -3.894,1.713 -8.406,-0.192 -10.159,-4.176 -1.753,-3.984 0.022,-8.547 3.824,-10.22 3.893,-1.713 8.457,0.061 10.21,4.045 1.753,3.984 0.018,8.638 -3.875,10.351 m 57.218,-26.906 -44.999,19.8 -5.099,-11.589 44.999,-19.8 z m 16.022,37.15 -9.326,4.104 c -0.264,-1.829 -0.909,-4.031 -1.745,-5.933 -1.753,-3.984 -3.981,-4.624 -9.775,-2.075 l -19.738,8.685 4.82,10.955 -8.963,3.945 -4.821,-10.956 -16.931,7.45 -2.021,-12.944 13.853,-6.095 -3.387,-7.696 8.964,-3.944 3.426,7.787 22.816,-10.04 c 10.503,-4.622 15.479,-3.137 19.862,6.823 1.394,3.169 2.415,6.718 2.966,9.934 m -5.265,57.541 c -11.137,4.9 -22.65,3.05 -28.427,-10.079 -5.936,-13.491 0.859,-25.558 14.62,-31.613 15.845,-6.972 26.504,-2.152 32.798,12.153 2.47,5.614 3.984,11.757 4.194,17.392 l -9.441,2.857 c 0.097,-4.69 -1.018,-9.927 -2.97,-14.363 -3.665,-8.33 -9.572,-10.702 -17.953,-6.906 l 12.271,27.886 c -1.782,1.108 -3.553,1.996 -5.092,2.673 M 59.592,212.799 52.301,196.23 c -5.154,3.024 -7.211,7.928 -5.1,12.726 2.152,4.889 6.856,6.494 12.391,3.843 m 48.367,33.292 -9.326,4.103 c -0.265,-1.828 -0.909,-4.03 -1.746,-5.932 -1.753,-3.983 -3.98,-4.625 -9.775,-2.075 l -19.738,8.685 4.821,10.955 -8.964,3.945 -4.82,-10.956 -16.931,7.45 -2.021,-12.944 13.852,-6.095 -3.386,-7.696 8.964,-3.944 3.426,7.786 22.816,-10.039 c 10.503,-4.621 15.479,-3.136 19.861,6.823 1.394,3.169 2.416,6.718 2.967,9.934 m 9.766,78.688 -10.14,4.462 -19.92,-45.271 10.141,-4.462 z m 30.857,50.723 c -14.577,6.414 -19.445,-13.49 -26.779,-10.263 -2.807,1.235 -3.661,4.204 -1.669,8.731 1.235,2.807 3.002,5.596 4.842,7.812 l -8.985,4.386 c -1.648,-2.517 -3.285,-5.255 -4.441,-7.881 -5.577,-12.675 -1.886,-21.972 5.991,-25.438 15.301,-6.733 18.782,13.458 26.749,9.952 2.988,-1.315 3.524,-5.009 1.572,-9.445 -1.514,-3.441 -3.662,-6.602 -5.621,-9.091 l 9.387,-4.454 c 1.728,2.698 3.524,5.798 4.959,9.058 5.418,12.313 2.868,22.729 -6.005,26.633 M 119.146,434.6 c -6.338,2.789 -13.187,-0.25 -16.015,-6.679 -2.789,-6.337 -0.442,-13.53 5.895,-16.319 6.429,-2.828 13.277,0.21 16.106,6.639 2.788,6.338 0.261,13.61 -5.986,16.359 m -2.989,-6.791 c 2.626,-1.155 3.883,-4.194 2.728,-6.819 -1.156,-2.626 -4.285,-3.843 -6.91,-2.688 -2.626,1.156 -3.843,4.285 -2.688,6.91 1.156,2.626 4.245,3.753 6.87,2.597 m 66.128,-13.534 c -3.792,1.452 -8.087,3.234 -11.709,4.827 l -18.742,8.247 c -9.778,4.303 -17.456,2.818 -23.83,-11.669 -2.55,-5.794 -3.923,-12.107 -4.285,-17.351 l 10.126,-3.267 c -0.499,4.759 0.533,10.789 2.326,14.863 2.868,6.519 6.308,7.707 11.016,5.635 l 2.445,-1.075 c -6.733,-15.302 -5.729,-28.495 5.045,-33.236 7.243,-3.187 13.932,-0.511 17.518,7.638 2.948,6.7 1.847,13.777 -2.267,18.18 l 0.13,0.051 c 2.195,-1.398 4.781,-2.644 7.407,-3.799 z M 158.234,410.7 c 5.432,-2.39 9.152,-8.674 6.642,-14.378 -1.474,-3.35 -4.252,-4.505 -7.149,-3.23 -3.622,1.593 -5.958,5.863 -0.58,18.086 z m -8.214,34.629 c -7.348,23.335 -23.497,25.685 -27.242,17.174 -2.789,-6.338 3.107,-11.85 8.565,-10.253 4.625,1.424 8.449,-0.691 12.35,-9.756 z m 71.344,57.758 -66.095,29.083 -5.06,-11.499 20.644,-9.083 c -1.148,-1.873 -2.036,-3.644 -2.873,-5.545 -6.573,-14.939 0.026,-28.433 15.237,-35.126 12.857,-5.657 23.486,-3.851 28.307,7.105 3.027,6.881 1.687,13.414 -2.257,17.96 l 0.08,0.181 c 2.285,-1.438 5.103,-2.894 7.276,-3.85 z m -28.419,-1.22 c 7.695,-3.386 13.164,-10.115 10.495,-16.181 -2.311,-5.252 -7.732,-5.784 -16.152,-2.079 -11.137,4.9 -13.23,11.441 -10.322,18.05 0.876,1.992 2.025,3.865 3.393,5.748 z m 24.276,62.05 c -11.136,4.9 -22.65,3.049 -28.426,-10.079 -5.936,-13.491 0.858,-25.558 14.62,-31.614 15.844,-6.972 26.503,-2.151 32.798,12.154 2.47,5.614 3.984,11.756 4.194,17.392 l -9.442,2.857 c 0.098,-4.69 -1.017,-9.927 -2.97,-14.364 -3.665,-8.329 -9.572,-10.701 -17.952,-6.906 l 12.27,27.887 c -1.782,1.108 -3.553,1.995 -5.092,2.673 m -7.685,-10.344 -7.291,-16.569 c -5.153,3.024 -7.21,7.928 -5.099,12.727 2.151,4.889 6.856,6.493 12.39,3.842 m 48.367,33.293 -9.326,4.103 c -0.264,-1.829 -0.909,-4.031 -1.746,-5.932 -1.752,-3.984 -3.98,-4.625 -9.774,-2.075 l -19.738,8.685 4.82,10.955 -8.963,3.944 -4.821,-10.955 -16.931,7.45 -2.021,-12.944 13.853,-6.095 -3.386,-7.697 8.963,-3.943 3.426,7.786 22.817,-10.039 c 10.502,-4.622 15.479,-3.137 19.861,6.823 1.394,3.168 2.415,6.718 2.966,9.934" style="fill:#ffffff;fill-opacity:1;fill-rule:nonzero;stroke:none" id="path42"></path>
        </g>
        <g id="g44" transform="translate(1582.4034,1297.4093)">
          <path d="m 0,0 v -17.943 c 0,-3.969 13.424,-12.674 30.571,-13.519 v -470.463 l 18.367,-50.926 18.351,50.926 v 470.463 c 17.164,0.845 31.529,9.663 30.588,13.519 V 0 Z" style="fill:#aa5f3c;fill-opacity:1;fill-rule:nonzero;stroke:none" id="path46"></path>
        </g>
      </g>
    </g>
  </g>
</svg>
